<svg xmlns="http://www.w3.org/2000/svg" width="1280" height="640" viewBox="0 0 1280 640">
  <defs>
    <linearGradient id="bgGrad" x1="0%" y1="0%" x2="100%" y2="100%">
      <stop offset="0%" style="stop-color:#0a0a14"/>
      <stop offset="60%" style="stop-color:#0d0f1c"/>
      <stop offset="100%" style="stop-color:#131525"/>
    </linearGradient>
    <linearGradient id="indigoGrad" x1="0%" y1="0%" x2="100%" y2="100%">
      <stop offset="0%" style="stop-color:#6366f1"/>
      <stop offset="100%" style="stop-color:#4338ca"/>
    </linearGradient>
    <linearGradient id="sepGrad" x1="0%" y1="0%" x2="0%" y2="100%">
      <stop offset="0%" style="stop-color:#2d3748;stop-opacity:0"/>
      <stop offset="30%" style="stop-color:#2d3748;stop-opacity:1"/>
      <stop offset="70%" style="stop-color:#2d3748;stop-opacity:1"/>
      <stop offset="100%" style="stop-color:#2d3748;stop-opacity:0"/>
    </linearGradient>
    <filter id="logoGlow" x="-20%" y="-20%" width="140%" height="140%">
      <feGaussianBlur in="SourceGraphic" stdDeviation="6" result="blur"/>
      <feMerge><feMergeNode in="blur"/><feMergeNode in="SourceGraphic"/></feMerge>
    </filter>
    <filter id="softShadow" x="-5%" y="-5%" width="110%" height="120%">
      <feDropShadow dx="0" dy="4" stdDeviation="10" flood-color="#000" flood-opacity="0.5"/>
    </filter>
  </defs>

  <!-- Background -->
  <rect width="1280" height="640" fill="url(#bgGrad)"/>
  <pattern id="dots" x="0" y="0" width="32" height="32" patternUnits="userSpaceOnUse">
    <circle cx="1" cy="1" r="0.8" fill="#ffffff" opacity="0.03"/>
  </pattern>
  <rect width="1280" height="640" fill="url(#dots)"/>
  <ellipse cx="160" cy="340" rx="320" ry="260" fill="#4f46e5" opacity="0.04"/>
  <ellipse cx="1050" cy="180" rx="280" ry="220" fill="#6366f1" opacity="0.035"/>

  <!-- Top accent line -->
  

  <!-- ═══════════════════════════════════════════════════════ -->
  <!-- LEFT PANEL — Branding + Features                        -->
  <!-- ═══════════════════════════════════════════════════════ -->

  <!-- Logo -->
  <rect x="56" y="44" width="52" height="52" rx="12" fill="url(#indigoGrad)" filter="url(#logoGlow)"/>
  <rect x="63" y="60" width="38" height="26" rx="2" fill="white" opacity="0.95"/>
  <path d="M63 62 L82 75.5 L101 62 L101 60 L63 60 Z" fill="url(#indigoGrad)"/>

  <!-- App name + badges -->
  <text x="118" y="68" font-family="-apple-system, BlinkMacSystemFont, 'Segoe UI', system-ui, sans-serif" font-size="30" font-weight="700" fill="#f8fafc" letter-spacing="-0.5">InboxCraft</text>
  <rect x="118" y="76" width="46" height="16" rx="8" fill="#1e2038" stroke="#3b3f6e" stroke-width="1"/>
  <text x="141" y="88" font-family="monospace" font-size="9.5" fill="#818cf8" text-anchor="middle">Outlook</text>
  <rect x="170" y="76" width="36" height="16" rx="8" fill="#1a2e1a" stroke="#2d5a2d" stroke-width="1"/>
  <text x="188" y="88" font-family="-apple-system, system-ui, sans-serif" font-size="9" fill="#4ade80" text-anchor="middle">MIT</text>
  <rect x="212" y="76" width="60" height="16" rx="8" fill="#1e1a2e" stroke="#3b2d6e" stroke-width="1"/>
  <text x="242" y="88" font-family="-apple-system, system-ui, sans-serif" font-size="9" fill="#a78bfa" text-anchor="middle">Free &amp; OSS</text>

  <!-- Tagline -->
  <text x="56" y="136" font-family="-apple-system, BlinkMacSystemFont, 'Segoe UI', system-ui, sans-serif" font-size="26" font-weight="700" fill="#f1f5f9" letter-spacing="-0.3">Automate Your Outlook Inbox</text>
  <text x="56" y="167" font-family="-apple-system, BlinkMacSystemFont, 'Segoe UI', system-ui, sans-serif" font-size="26" font-weight="700" fill="#818cf8" letter-spacing="-0.3">No Code Required</text>

  <!-- Description -->
  <text x="56" y="200" font-family="-apple-system, system-ui, sans-serif" font-size="13.5" fill="#94a3b8">Paste sender emails → configure options → get a ready-to-run</text>
  <text x="56" y="218" font-family="-apple-system, system-ui, sans-serif" font-size="13.5" fill="#94a3b8">PowerShell script. Runs entirely in your browser.</text>

  <!-- Privacy badges -->
  <rect x="56" y="232" width="110" height="22" rx="11" fill="#0f172a" stroke="#1e293b" stroke-width="1.5"/>
  <text x="75" y="247" font-family="-apple-system, system-ui, sans-serif" font-size="10.5" fill="#7dd3fc">🔒 No sign-up</text>
  <rect x="173" y="232" width="155" height="22" rx="11" fill="#0f172a" stroke="#1e293b" stroke-width="1.5"/>
  <text x="190" y="247" font-family="-apple-system, system-ui, sans-serif" font-size="10.5" fill="#7dd3fc">🔒 Data stays in browser</text>

  <!-- Divider -->
  <rect x="56" y="270" width="200" height="1" rx="1" fill="#1e293b"/>

  <!-- Feature cards — 2×4 grid -->
  <!-- Row 1 -->
  <rect x="56" y="284" width="220" height="60" rx="8" fill="#0d0f1c" stroke="#1e2038" stroke-width="1"/>
  <rect x="56" y="284" width="3" height="60" rx="1.5" fill="#6366f1"/>
  <text x="72" y="304" font-family="-apple-system, system-ui, sans-serif" font-size="12" font-weight="600" fill="#e2e8f0">COM + Exchange Hybrid</text>
  <text x="72" y="320" font-family="-apple-system, system-ui, sans-serif" font-size="11" fill="#64748b">Folders via Outlook COM,</text>
  <text x="72" y="334" font-family="-apple-system, system-ui, sans-serif" font-size="11" fill="#64748b">rules via Exchange Online</text>

  <rect x="284" y="284" width="220" height="60" rx="8" fill="#0d0f1c" stroke="#1e2038" stroke-width="1"/>
  <rect x="284" y="284" width="3" height="60" rx="1.5" fill="#6366f1"/>
  <text x="300" y="304" font-family="-apple-system, system-ui, sans-serif" font-size="12" font-weight="600" fill="#e2e8f0">Live Folder Tree Preview</text>
  <text x="300" y="320" font-family="-apple-system, system-ui, sans-serif" font-size="11" fill="#64748b">Real-time folder structure</text>
  <text x="300" y="334" font-family="-apple-system, system-ui, sans-serif" font-size="11" fill="#64748b">updates as you type</text>

  <!-- Row 2 -->
  <rect x="56" y="352" width="220" height="60" rx="8" fill="#0d0f1c" stroke="#1e2038" stroke-width="1"/>
  <rect x="56" y="352" width="3" height="60" rx="1.5" fill="#818cf8"/>
  <text x="72" y="372" font-family="-apple-system, system-ui, sans-serif" font-size="12" font-weight="600" fill="#e2e8f0">Domain-Wide Rules</text>
  <text x="72" y="388" font-family="monospace" font-size="10.5" fill="#a78bfa">@startup.io</text>
  <text x="130" y="388" font-family="-apple-system, system-ui, sans-serif" font-size="11" fill="#64748b"> → all senders matched</text>
  <text x="72" y="402" font-family="-apple-system, system-ui, sans-serif" font-size="11" fill="#64748b">from an entire domain</text>

  <rect x="284" y="352" width="220" height="60" rx="8" fill="#0d0f1c" stroke="#1e2038" stroke-width="1"/>
  <rect x="284" y="352" width="3" height="60" rx="1.5" fill="#818cf8"/>
  <text x="300" y="372" font-family="-apple-system, system-ui, sans-serif" font-size="12" font-weight="600" fill="#e2e8f0">Copy or Move</text>
  <text x="300" y="388" font-family="-apple-system, system-ui, sans-serif" font-size="11" fill="#64748b">Choose whether matching</text>
  <text x="300" y="402" font-family="-apple-system, system-ui, sans-serif" font-size="11" fill="#64748b">emails are copied or moved</text>

  <!-- Row 3 -->
  <rect x="56" y="420" width="220" height="60" rx="8" fill="#0d0f1c" stroke="#1e2038" stroke-width="1"/>
  <rect x="56" y="420" width="3" height="60" rx="1.5" fill="#a78bfa"/>
  <text x="72" y="440" font-family="-apple-system, system-ui, sans-serif" font-size="12" font-weight="600" fill="#e2e8f0">CSV Import + Sharelink</text>
  <text x="72" y="456" font-family="-apple-system, system-ui, sans-serif" font-size="11" fill="#64748b">Upload CSV or share your</text>
  <text x="72" y="470" font-family="-apple-system, system-ui, sans-serif" font-size="11" fill="#64748b">config via URL</text>

  <rect x="284" y="420" width="220" height="60" rx="8" fill="#0d0f1c" stroke="#1e2038" stroke-width="1"/>
  <rect x="284" y="420" width="3" height="60" rx="1.5" fill="#a78bfa"/>
  <text x="300" y="440" font-family="-apple-system, system-ui, sans-serif" font-size="12" font-weight="600" fill="#e2e8f0">Idempotent Scripts</text>
  <text x="300" y="456" font-family="-apple-system, system-ui, sans-serif" font-size="11" fill="#64748b">Safe to re-run — existing</text>
  <text x="300" y="470" font-family="-apple-system, system-ui, sans-serif" font-size="11" fill="#64748b">folders &amp; rules are skipped</text>

  <!-- Row 4 -->
  <rect x="56" y="488" width="220" height="60" rx="8" fill="#0d0f1c" stroke="#1e2038" stroke-width="1"/>
  <rect x="56" y="488" width="3" height="60" rx="1.5" fill="#c4b5fd"/>
  <text x="72" y="508" font-family="-apple-system, system-ui, sans-serif" font-size="12" font-weight="600" fill="#e2e8f0">Exact or Contains Match</text>
  <text x="72" y="524" font-family="-apple-system, system-ui, sans-serif" font-size="11" fill="#64748b">Match exact sender address</text>
  <text x="72" y="538" font-family="-apple-system, system-ui, sans-serif" font-size="11" fill="#64748b">or any containing a string</text>

  <rect x="284" y="488" width="220" height="60" rx="8" fill="#0d0f1c" stroke="#1e2038" stroke-width="1"/>
  <rect x="284" y="488" width="3" height="60" rx="1.5" fill="#c4b5fd"/>
  <text x="300" y="508" font-family="-apple-system, system-ui, sans-serif" font-size="12" font-weight="600" fill="#e2e8f0">Copy &amp; Download</text>
  <text x="300" y="524" font-family="-apple-system, system-ui, sans-serif" font-size="11" fill="#64748b">One-click clipboard copy</text>
  <text x="300" y="538" font-family="-apple-system, system-ui, sans-serif" font-size="11" fill="#64748b">or download as .ps1</text>

  <!-- Keyboard shortcut pill -->
  <rect x="56" y="560" width="200" height="24" rx="12" fill="#0f0e1a" stroke="#2d2b4e" stroke-width="1"/>
  <text x="157" y="576" font-family="-apple-system, system-ui, sans-serif" font-size="11" fill="#6366f1" text-anchor="middle">⌨ Ctrl+Enter to generate</text>

  <!-- Vertical separator -->
  <rect x="546" y="48" width="1" height="544" fill="url(#sepGrad)"/>

  <!-- ═══════════════════════════════════════════════════════ -->
  <!-- RIGHT PANEL — Mock App UI (no code shown)              -->
  <!-- ═══════════════════════════════════════════════════════ -->
  <g filter="url(#softShadow)">
    <rect x="567" y="56" width="666" height="528" rx="14" fill="#12131f" stroke="#1e2040" stroke-width="1"/>
  </g>

  <!-- Browser chrome -->
  <rect x="567" y="56" width="666" height="38" rx="14" fill="#0d0e1a"/>
  <rect x="567" y="76" width="666" height="18" fill="#0d0e1a"/>
  <circle cx="591" cy="75" r="5.5" fill="#ff5f57"/>
  <circle cx="609" cy="75" r="5.5" fill="#febc2e"/>
  <circle cx="627" cy="75" r="5.5" fill="#28c840"/>
  
  
  

  <!-- App content area background -->
  <rect x="567" y="94" width="666" height="490" fill="#0d0e1a"/>
  <rect x="567" y="94" width="666" height="1" fill="#1a1b30"/>

  <!-- App header bar -->
  <rect x="567" y="94" width="666" height="36" fill="#0a0b16"/>
  <rect x="567" y="94" width="666" height="1" fill="#1a1b30"/>
  <!-- Logo in app header -->
  <rect x="583" y="103" width="20" height="20" rx="5" fill="url(#indigoGrad)"/>
  <rect x="587" y="108" width="12" height="8" rx="1" fill="none" stroke="white" stroke-width="1.2"/>
  <polyline points="587,108.5 593,113 599,108.5" fill="none" stroke="white" stroke-width="1.2"/>
  <text x="608" y="117" font-family="-apple-system, system-ui, sans-serif" font-size="12" font-weight="700" fill="#e2e8f0">InboxCraft</text>
  <!-- Nav items -->
  <text x="880" y="117" font-family="-apple-system, system-ui, sans-serif" font-size="10.5" fill="#64748b">Documentation</text>
  <text x="980" y="117" font-family="-apple-system, system-ui, sans-serif" font-size="10.5" fill="#64748b">GitHub</text>
  <!-- Share button -->
  <rect x="1080" y="105" width="60" height="20" rx="5" fill="#181928" stroke="#252640" stroke-width="1"/>
  <text x="1110" y="119" font-family="-apple-system, system-ui, sans-serif" font-size="10" fill="#818cf8" text-anchor="middle">🔗 Share</text>
  <!-- Reset button -->
  <rect x="1147" y="105" width="70" height="20" rx="5" fill="#181928" stroke="#252640" stroke-width="1"/>
  <text x="1182" y="119" font-family="-apple-system, system-ui, sans-serif" font-size="10" fill="#64748b" text-anchor="middle">↺ Reset</text>

  <!-- Two-column layout inside app -->
  <!-- Left input column (x:567-846) -->
  <!-- Right results column (x:847-1233) -->
  <rect x="847" y="130" width="1" height="454" fill="#1a1b30"/>

  <!-- ─── LEFT INPUT COLUMN ─── -->

  <!-- Sender Emails section -->
  <text x="583" y="150" font-family="-apple-system, system-ui, sans-serif" font-size="11.5" font-weight="600" fill="#c7d2fe">Sender Emails</text>
  <text x="583" y="164" font-family="-apple-system, system-ui, sans-serif" font-size="9.5" fill="#4b5563">One per line · comma · semicolon · or CSV upload</text>

  <!-- Textarea -->
  <rect x="583" y="170" width="250" height="108" rx="6" fill="#111221" stroke="#252640" stroke-width="1"/>
  <text x="595" y="186" font-family="monospace" font-size="9.5" fill="#86efac">alice@startup.io</text>
  <text x="595" y="200" font-family="monospace" font-size="9.5" fill="#86efac">bob@startup.io</text>
  <text x="595" y="214" font-family="monospace" font-size="9.5" fill="#a78bfa">@newsletter.com</text>
  <text x="595" y="228" font-family="monospace" font-size="9.5" fill="#86efac">carol@partner.org</text>
  <text x="595" y="242" font-family="monospace" font-size="9.5" fill="#86efac">hr@company.io</text>
  <text x="595" y="256" font-family="monospace" font-size="9.5" fill="#86efac">noreply@slack.com</text>
  <!-- cursor -->
  <rect x="595" y="262" width="1.5" height="10" fill="#6366f1" opacity="0.9"/>
  <!-- email count badge -->
  <rect x="784" y="285" width="48" height="16" rx="8" fill="#1e2038" stroke="#3b3f6e" stroke-width="1"/>
  <text x="808" y="297" font-family="-apple-system, system-ui, sans-serif" font-size="9" fill="#818cf8" text-anchor="middle">6 emails</text>

  <!-- Parent folder -->
  <text x="583" y="318" font-family="-apple-system, system-ui, sans-serif" font-size="11" font-weight="600" fill="#94a3b8">Parent Folder</text>
  <rect x="583" y="324" width="250" height="22" rx="5" fill="#111221" stroke="#252640" stroke-width="1"/>
  <text x="592" y="339" font-family="monospace" font-size="9.5" fill="#e2e8f0">Inbox/team/startup</text>

  <!-- Action toggle -->
  <text x="583" y="362" font-family="-apple-system, system-ui, sans-serif" font-size="11" font-weight="600" fill="#94a3b8">Action</text>
  <rect x="583" y="368" width="62" height="22" rx="5" fill="#4f46e5"/>
  <text x="614" y="383" font-family="-apple-system, system-ui, sans-serif" font-size="10" font-weight="600" fill="white" text-anchor="middle">Copy</text>
  <rect x="650" y="368" width="62" height="22" rx="5" fill="#111221" stroke="#252640" stroke-width="1"/>
  <text x="681" y="383" font-family="-apple-system, system-ui, sans-serif" font-size="10" fill="#6b7280" text-anchor="middle">Move</text>

  <!-- Match toggle -->
  <text x="583" y="408" font-family="-apple-system, system-ui, sans-serif" font-size="11" font-weight="600" fill="#94a3b8">Match Type</text>
  <rect x="583" y="414" width="62" height="22" rx="5" fill="#4f46e5"/>
  <text x="614" y="429" font-family="-apple-system, system-ui, sans-serif" font-size="10" font-weight="600" fill="white" text-anchor="middle">Exact</text>
  <rect x="650" y="414" width="78" height="22" rx="5" fill="#111221" stroke="#252640" stroke-width="1"/>
  <text x="689" y="429" font-family="-apple-system, system-ui, sans-serif" font-size="10" fill="#6b7280" text-anchor="middle">Contains</text>

  <!-- M365 email field -->
  <text x="583" y="453" font-family="-apple-system, system-ui, sans-serif" font-size="11" font-weight="600" fill="#94a3b8">Your M365 Email</text>
  <rect x="583" y="459" width="250" height="22" rx="5" fill="#111221" stroke="#252640" stroke-width="1"/>
  <text x="592" y="474" font-family="monospace" font-size="9.5" fill="#4b5563">you@company.com</text>

  <!-- Generate button -->
  <rect x="583" y="496" width="250" height="34" rx="7" fill="url(#indigoGrad)" filter=""/>
  <text x="708" y="518" font-family="-apple-system, system-ui, sans-serif" font-size="12" font-weight="600" fill="white" text-anchor="middle">Generate Script  Ctrl+↵</text>

  <!-- CSV upload hint -->
  <text x="708" y="548" font-family="-apple-system, system-ui, sans-serif" font-size="10" fill="#374151" text-anchor="middle">or drag &amp; drop a .csv file</text>

  <!-- ─── RIGHT RESULTS COLUMN ─── -->

  <!-- Folder Tree section -->
  <text x="865" y="150" font-family="-apple-system, system-ui, sans-serif" font-size="11.5" font-weight="600" fill="#c7d2fe">Folder Tree Preview</text>
  <!-- 6 emails badge -->
  <rect x="990" y="140" width="56" height="18" rx="9" fill="#1e2038" stroke="#3b3f6e" stroke-width="1"/>
  <text x="1018" y="153" font-family="-apple-system, system-ui, sans-serif" font-size="9" fill="#818cf8" text-anchor="middle">6 folders</text>

  <!-- Folder tree box -->
  <rect x="865" y="162" width="346" height="162" rx="8" fill="#111221" stroke="#1e2038" stroke-width="1"/>
  <!-- Tree lines -->
  <line x1="893" y1="190" x2="893" y2="296" stroke="#2d3748" stroke-width="1" stroke-dasharray="2,2"/>
  <line x1="907" y1="208" x2="907" y2="296" stroke="#2d3748" stroke-width="1" stroke-dasharray="2,2"/>
  <line x1="921" y1="226" x2="921" y2="296" stroke="#2d3748" stroke-width="1" stroke-dasharray="2,2"/>

  <!-- Inbox -->
  <text x="878" y="183" font-family="monospace" font-size="10.5" fill="#94a3b8">📁 Inbox</text>
  <!-- team -->
  <text x="893" y="199" font-family="monospace" font-size="10.5" fill="#94a3b8">└─ 📁 team</text>
  <!-- startup -->
  <text x="907" y="216" font-family="monospace" font-size="10.5" fill="#94a3b8">   └─ 📁 startup</text>
  <!-- alice -->
  <rect x="921" y="222" width="66" height="16" rx="4" fill="#1a2e1a" stroke="#2d5a2d" stroke-width="0.8"/>
  <text x="930" y="234" font-family="monospace" font-size="10" fill="#86efac">alice</text>
  <!-- bob -->
  <rect x="921" y="240" width="48" height="16" rx="4" fill="#1a2e1a" stroke="#2d5a2d" stroke-width="0.8"/>
  <text x="930" y="252" font-family="monospace" font-size="10" fill="#86efac">bob</text>
  <!-- carol -->
  <rect x="921" y="258" width="56" height="16" rx="4" fill="#1a2e1a" stroke="#2d5a2d" stroke-width="0.8"/>
  <text x="930" y="270" font-family="monospace" font-size="10" fill="#86efac">carol</text>
  <!-- hr -->
  <rect x="921" y="276" width="34" height="16" rx="4" fill="#1a2e1a" stroke="#2d5a2d" stroke-width="0.8"/>
  <text x="930" y="288" font-family="monospace" font-size="10" fill="#86efac">hr</text>
  <!-- newsletter (domain rule) -->
  <rect x="921" y="294" width="136" height="16" rx="4" fill="#1e1a2e" stroke="#3b2d6e" stroke-width="0.8"/>
  <text x="930" y="306" font-family="monospace" font-size="10" fill="#a78bfa">@newsletter.com</text>
  <!-- noreply -->
  <rect x="1068" y="222" width="72" height="16" rx="4" fill="#1a2e1a" stroke="#2d5a2d" stroke-width="0.8"/>
  <text x="1077" y="234" font-family="monospace" font-size="10" fill="#86efac">noreply</text>

  <!-- Rules Preview section -->
  <text x="865" y="346" font-family="-apple-system, system-ui, sans-serif" font-size="11.5" font-weight="600" fill="#c7d2fe">Rules Preview</text>

  <!-- Table header -->
  <rect x="865" y="354" width="346" height="24" rx="6" fill="#0d0e1a" stroke="#1e2038" stroke-width="1"/>
  <rect x="865" y="360" width="346" height="18" fill="#0d0e1a"/>
  <text x="876" y="370" font-family="-apple-system, system-ui, sans-serif" font-size="9.5" font-weight="600" fill="#64748b">SENDER</text>
  <text x="1020" y="370" font-family="-apple-system, system-ui, sans-serif" font-size="9.5" font-weight="600" fill="#64748b">FOLDER</text>
  <text x="1130" y="370" font-family="-apple-system, system-ui, sans-serif" font-size="9.5" font-weight="600" fill="#64748b">MATCH</text>

  <!-- Table rows -->
  <!-- Row 1 -->
  <rect x="865" y="378" width="346" height="22" rx="0" fill="#111221"/>
  <text x="876" y="393" font-family="monospace" font-size="9" fill="#86efac">alice@startup.io</text>
  <text x="1020" y="393" font-family="monospace" font-size="9" fill="#94a3b8">startup/alice</text>
  <rect x="1128" y="382" width="38" height="14" rx="4" fill="#1e1a2e" stroke="#3b2d6e" stroke-width="0.8"/>
  <text x="1147" y="393" font-family="-apple-system, system-ui, sans-serif" font-size="8.5" fill="#a78bfa" text-anchor="middle">exact</text>

  <!-- Row 2 -->
  <rect x="865" y="400" width="346" height="22" rx="0" fill="#0d0e1a"/>
  <text x="876" y="415" font-family="monospace" font-size="9" fill="#86efac">bob@startup.io</text>
  <text x="1020" y="415" font-family="monospace" font-size="9" fill="#94a3b8">startup/bob</text>
  <rect x="1128" y="404" width="38" height="14" rx="4" fill="#1e1a2e" stroke="#3b2d6e" stroke-width="0.8"/>
  <text x="1147" y="415" font-family="-apple-system, system-ui, sans-serif" font-size="8.5" fill="#a78bfa" text-anchor="middle">exact</text>

  <!-- Row 3 (domain rule) -->
  <rect x="865" y="422" width="346" height="22" rx="0" fill="#111221"/>
  <text x="876" y="437" font-family="monospace" font-size="9" fill="#a78bfa">@newsletter.com</text>
  <text x="1020" y="437" font-family="monospace" font-size="9" fill="#94a3b8">startup/newsletter</text>
  <rect x="1128" y="426" width="50" height="14" rx="4" fill="#1e1426" stroke="#4b2d6e" stroke-width="0.8"/>
  <text x="1153" y="437" font-family="-apple-system, system-ui, sans-serif" font-size="8.5" fill="#c084fc" text-anchor="middle">domain</text>

  <!-- Row 4 -->
  <rect x="865" y="444" width="346" height="22" rx="0" fill="#0d0e1a"/>
  <text x="876" y="459" font-family="monospace" font-size="9" fill="#86efac">carol@partner.org</text>
  <text x="1020" y="459" font-family="monospace" font-size="9" fill="#94a3b8">startup/carol</text>
  <rect x="1128" y="448" width="38" height="14" rx="4" fill="#1e1a2e" stroke="#3b2d6e" stroke-width="0.8"/>
  <text x="1147" y="459" font-family="-apple-system, system-ui, sans-serif" font-size="8.5" fill="#a78bfa" text-anchor="middle">exact</text>

  <!-- Row 5 -->
  <rect x="865" y="466" width="346" height="22" rx="0" fill="#111221"/>
  <text x="876" y="481" font-family="monospace" font-size="9" fill="#86efac">hr@company.io</text>
  <text x="1020" y="481" font-family="monospace" font-size="9" fill="#94a3b8">startup/hr</text>
  <rect x="1128" y="470" width="38" height="14" rx="4" fill="#1e1a2e" stroke="#3b2d6e" stroke-width="0.8"/>
  <text x="1147" y="481" font-family="-apple-system, system-ui, sans-serif" font-size="8.5" fill="#a78bfa" text-anchor="middle">exact</text>

  <!-- Row 6 -->
  <rect x="865" y="488" width="346" height="22" rx="0" fill="#0d0e1a"/>
  <text x="876" y="503" font-family="monospace" font-size="9" fill="#86efac">noreply@slack.com</text>
  <text x="1020" y="503" font-family="monospace" font-size="9" fill="#94a3b8">startup/noreply</text>
  <rect x="1128" y="492" width="38" height="14" rx="4" fill="#1e1a2e" stroke="#3b2d6e" stroke-width="0.8"/>
  <text x="1147" y="503" font-family="-apple-system, system-ui, sans-serif" font-size="8.5" fill="#a78bfa" text-anchor="middle">exact</text>

  <!-- Table bottom border -->
  <rect x="865" y="510" width="346" height="1" fill="#1e2038"/>

  <!-- Download / Copy row -->
  <rect x="865" y="524" width="166" height="30" rx="7" fill="url(#indigoGrad)"/>
  <text x="948" y="543" font-family="-apple-system, system-ui, sans-serif" font-size="11" font-weight="600" fill="white" text-anchor="middle">⬇ Download .ps1</text>

  <rect x="1038" y="524" width="173" height="30" rx="7" fill="#181928" stroke="#252640" stroke-width="1"/>
  <text x="1124" y="543" font-family="-apple-system, system-ui, sans-serif" font-size="11" fill="#c7d2fe" text-anchor="middle">📋 Copy to Clipboard</text>

  <!-- ─── Footer strip ─── -->
  <rect x="567" y="584" width="666" height="1" fill="#1a1b30"/>

  <!-- Tech badges -->
  <text x="872" y="604" font-family="-apple-system, system-ui, sans-serif" font-size="10" fill="#374151">Built with:</text>
  <rect x="929" y="595" width="48" height="17" rx="8" fill="#0d1117" stroke="#1e293b" stroke-width="1"/>
  <text x="953" y="607" font-family="-apple-system, system-ui, sans-serif" font-size="9" fill="#61dafb" text-anchor="middle">React</text>
  <rect x="981" y="595" width="68" height="17" rx="8" fill="#0d1117" stroke="#1e293b" stroke-width="1"/>
  <text x="1015" y="607" font-family="-apple-system, system-ui, sans-serif" font-size="9" fill="#3178c6" text-anchor="middle">TypeScript</text>
  <rect x="1053" y="595" width="58" height="17" rx="8" fill="#0d1117" stroke="#1e293b" stroke-width="1"/>
  <text x="1082" y="607" font-family="-apple-system, system-ui, sans-serif" font-size="9" fill="#06b6d4" text-anchor="middle">Tailwind</text>
  <rect x="1115" y="595" width="36" height="17" rx="8" fill="#0d1117" stroke="#1e293b" stroke-width="1"/>
  <text x="1133" y="607" font-family="-apple-system, system-ui, sans-serif" font-size="9" fill="#bd34fe" text-anchor="middle">Vite</text>

  <!-- Bottom left attribution -->
  <text x="56" y="617" font-family="-apple-system, system-ui, sans-serif" font-size="11" fill="#334155">github.com/trivedi-vatsal/inboxcraft</text>

  <!-- Bottom right -->
  <text x="1224" y="617" font-family="-apple-system, system-ui, sans-serif" font-size="11" fill="#334155" text-anchor="end">Free &amp; Open Source · MIT License</text>

</svg>